# xmcd
#
# Track frame offsets:
#	150
#	16640
#	41461
#	61615
#	83074
#	102883
#	117899
#	143847
#	162286
#	187298
#	202575
#	221929
#
# Disc length: 3107 seconds
#
# Revision: 1
# Processed by: cddbd v1.5.2PL0 Copyright (c) Steve Scherf et al.
# Submitted via: audiograbber 1.83.01
#
DISCID=980c210c
DTITLE=Los Boozan Dukes - Creole Stomp
DYEAR=2015
DGENRE=Blues
TTITLE0=les Oignons (traditional)
TTITLE1=The Gospel According to Dr. Zelig J. Zeljkovic (P. Sessions)
TTITLE2=Sale Dame (traditional)
TTITLE3=Atlanta Blues (Handy/Elman)
TTITLE4=Eh La Bas (Kid Ory)
TTITLE5=Tootie Ma (traditional)
TTITLE6=Shag (S. Bechet)
TTITLE7=Mo Pa Lemme Ca (traditional)
TTITLE8=Mississippi Wine (P. Sessions)
TTITLE9=Fifty Cents (McKay)
TTITLE10=Got Everything (Palmer/Razaf)
TTITLE11=C'est L'autre Can Can (Kid Ory)
EXTD=
EXTT0=
EXTT1=
EXTT2=
EXTT3=
EXTT4=
EXTT5=
EXTT6=
EXTT7=
EXTT8=
EXTT9=
EXTT10=
EXTT11=
PLAYORDER=
